<svg xmlns="http://www.w3.org/2000/svg" viewBox="0 0 32 32"><defs><style>.cls-1{fill:#ffb286;}.cls-2{fill:#f76314;}</style></defs><title>Asset 5</title><g id="Layer_2" data-name="Layer 2"><g id="IoT"><rect class="cls-1" x="5" y="5" width="22" height="22" rx="2" ry="2"/><rect class="cls-2" x="9" y="9" width="14" height="14" rx="1" ry="1"/><rect class="cls-2" y="15" width="7" height="2" rx="0.5" ry="0.5"/><rect class="cls-2" y="10" width="7" height="2" rx="0.5" ry="0.5"/><rect class="cls-2" y="20" width="7" height="2" rx="0.5" ry="0.5"/><rect class="cls-2" x="25" y="10" width="7" height="2" rx="0.5" ry="0.5"/><rect class="cls-2" x="25" y="15" width="7" height="2" rx="0.5" ry="0.5"/><rect class="cls-2" x="25" y="20" width="7" height="2" rx="0.5" ry="0.5"/><rect class="cls-2" x="7.5" y="2.5" width="7" height="2" rx="0.5" ry="0.5" transform="translate(14.5 -7.5) rotate(90)"/><rect class="cls-2" x="12.5" y="2.5" width="7" height="2" rx="0.5" ry="0.5" transform="translate(19.5 -12.5) rotate(90)"/><rect class="cls-2" x="17.5" y="2.5" width="7" height="2" rx="0.5" ry="0.5" transform="translate(24.5 -17.5) rotate(90)"/><rect class="cls-2" x="7.5" y="27.5" width="7" height="2" rx="0.5" ry="0.5" transform="translate(39.5 17.5) rotate(90)"/><rect class="cls-2" x="12.5" y="27.5" width="7" height="2" rx="0.5" ry="0.5" transform="translate(44.5 12.5) rotate(90)"/><rect class="cls-2" x="17.5" y="27.5" width="7" height="2" rx="0.5" ry="0.5" transform="translate(49.5 7.5) rotate(90)"/></g></g></svg>