<svg xmlns="http://www.w3.org/2000/svg" viewBox="0 0 32 32"><defs><style>.cls-1{fill:#01cda4;}.cls-2{fill:#86f6df;}</style></defs><title>Asset 7</title><g id="Layer_2" data-name="Layer 2"><g id="ISO"><path class="cls-1" d="M16,0A16,16,0,1,0,32,16,16,16,0,0,0,16,0Zm0,20a4,4,0,1,1,4-4A4,4,0,0,1,16,20Z"/><path class="cls-2" d="M16,6A10,10,0,1,0,26,16,10,10,0,0,0,16,6Zm0,14a4,4,0,1,1,4-4A4,4,0,0,1,16,20Z"/><path class="cls-1" d="M16,11a5,5,0,1,0,5,5A5,5,0,0,0,16,11Zm0,9a4,4,0,1,1,4-4A4,4,0,0,1,16,20Z"/></g></g></svg>